ply
format ascii 1.0
element vertex 358
property float x
property float y
property float z
end_header
-0.635184 -0.836332 2.0008
-0.961266 -0.96211 2.79896
-2.47989 -1.04985 4.5788
-0.601817 -0.677613 2.00189
-0.334484 -0.568881 1.19865
-0.610793 -0.624143 2.5336
-2.07242 -1.66986 4.15305
-1.95945 -1.40982 4.37417
-0.92396 -0.910335 2.84766
-0.578057 -0.588048 2.79022
-1.60445 -1.6954 3.56347
-0.106984 -0.703105 1.51838
-0.147764 -0.634942 1.65262
-0.416886 -0.604255 1.36387
-0.481275 -0.617535 3.24507
-0.220909 -0.671507 2.21646
-1.97369 -0.549824 4.2697
-0.889452 -0.943517 2.62164
-0.0157645 -0.744009 1.58773
-1.66108 -1.54753 3.62616
-0.25062 -0.466545 1.00857
-0.240896 -0.680091 2.49568
-0.204173 -0.369037 0.96151
-0.269781 -0.664874 1.88669
-1.72424 -0.327997 3.84902
-0.152411 -0.259036 0.608419
-0.980227 -0.823457 2.96554
-0.296149 -0.666739 2.76285
-0.284665 -0.47314 1.03562
-1.57868 -1.19566 3.90858
-0.772332 -1.02087 2.2361
-1.0804 -1.12859 2.87583
-0.144394 -0.528305 1.23224
-0.432717 -0.63206 3.03324
-1.91476 -0.848738 3.95466
-0.21482 -0.702878 2.3579
-0.889608 -1.07316 2.47926
-0.509103 -0.66309 1.80635
-0.00412405 -0.717099 1.96258
-0.867756 -0.660024 4.53397
-1.76868 -0.91531 3.88183
-0.145859 -0.619561 1.6891
-0.451186 -0.668911 2.60756
-2.22085 -1.81024 4.24985
-0.416186 -0.69894 1.46388
-0.183414 -0.448993 1.00966
-1.51513 -0.0717319 3.78279
-1.26948 -1.10713 3.37483
-1.49455 -1.40409 3.45386
0.07024 -1.17286 5.38115
0.0034789 -0.759606 2.39694
-0.338152 -0.430466 1.24187
-0.250591 -0.718424 2.27
-0.960521 -1.03285 2.70208
-1.47323 -0.862596 4.63879
-2.24955 -1.35289 4.14284
-0.00454731 -0.764446 1.77149
-0.394077 -0.638272 2.37653
0.0281411 0.0497009 -0.120806
-1.75495 -1.44289 3.91465
-2.11748 -1.29126 4.09444
-1.78217 -1.66959 3.72967
0.0139259 -0.727815 2.03615
-0.379411 -0.508477 1.38011
-1.53917 -1.29053 3.72969
-0.310662 -0.653477 2.55899
-0.368082 -0.536659 1.24732
-0.528598 -0.881615 1.81616
-1.67808 -0.214408 3.84399
-1.02396 -1.10479 2.78052
-1.47802 -1.19686 3.74229
-1.54309 -0.905434 4.43609
-2.48943 -1.85797 4.34251
-1.19889 -0.92819 3.3006
0.0873746 -0.684298 2.41811
-1.99488 -1.57863 4.14085
-0.276512 -0.680756 2.2888
-0.58655 -0.60439 3.27792
-1.46229 -1.50842 3.15035
-0.0610114 -0.655514 1.64951
-1.63659 -0.809458 3.81891
-0.117348 -0.666754 1.8331
-0.57924 -0.632914 2.42496
-1.35277 -1.40217 3.19383
-1.92658 -1.21748 4.05026
-1.25305 -0.773472 3.32301
-1.56064 0.00328187 3.78258
-1.42694 -0.939583 4.19375
-1.56913 -1.27968 3.80911
-1.14247 -0.881779 3.18163
-0.882961 -1.05161 2.47812
-0.187469 -0.506874 1.05658
-1.00261 -0.939466 3.02198
-2.85693 -1.33644 5.50289
-0.367787 -0.586602 1.31788
-0.324045 -0.494947 1.1291
-0.947426 -0.999693 2.70553
-1.83193 -0.0526391 3.93791
-1.20004 -0.855134 3.29882
-0.527657 -0.594155 2.6664
0.0704758 -0.741712 2.72195
-1.05663 -1.17574 2.7747
-1.40727 -1.25378 3.49857
-0.404383 -0.69536 3.4672
-2.04572 -0.792443 3.99769
-0.0256155 -0.715792 1.6281
-1.01441 -1.11491 2.73369
-1.39494 -1.18567 3.57227
-3.46187 -0.927634 6.21719
-0.0343641 -0.726759 1.54383
0.0631982 -0.702208 1.88579
-0.448717 -0.617256 1.608
-0.285344 -0.704893 2.18236
-1.0996 -1.26596 2.8058
-0.135859 -0.597099 1.25844
-1.8177 -0.238202 3.94319
-0.207749 -0.49084 0.971913
-1.48637 -1.3101 3.55956
-0.207524 -0.72459 2.54968
-0.651689 -0.856206 1.97752
-0.954909 -0.831029 2.89827
-0.156478 -0.555039 1.1424
-1.1493 -1.0813 3.10197
-0.274501 -0.651948 2.55248
-0.723481 -0.911825 2.18238
-0.0820904 -0.647982 1.5043
-1.9502 -1.0204 3.97942
-1.68426 -1.2963 4.02387
-1.69847 -0.655301 3.14787
-1.22895 -1.2398 3.09769
0.0571046 -0.712606 1.97108
-0.169088 -0.447067 1.00913
-1.69275 -0.105167 3.83861
-0.476288 -0.670962 2.26448
-0.592626 -0.784494 1.76605
-1.78382 -1.48642 3.89953
-1.56343 -0.818869 4.58815
-2.10041 -1.33351 4.19486
-0.317336 -0.563507 1.14804
-0.428337 -0.607977 2.31075
-1.33757 -1.3641 3.19788
-1.22462 -1.15309 3.1762
0.0673454 -0.548357 3.28148
-2.23203 -0.996937 4.47545
-0.21006 -0.349573 0.834424
-1.22903 -1.10299 3.27537
-0.390829 -0.659238 2.74233
-0.414779 -0.624328 1.35887
0.0301237 -0.69442 1.73919
-0.00260229 -0.745829 1.62162
-1.51058 -1.38727 3.52044
-1.86628 -1.34066 4.30617
-0.219098 -1.00564 4.59981
-1.80076 -1.65376 3.78111
-0.548922 -0.874278 1.81589
-1.65485 -0.290019 3.84559
-0.143029 -0.515262 1.36098
-0.232345 -0.699079 2.38376
-1.54374 -0.776384 4.76384
-0.205199 -0.352577 0.808937
0.0702366 -0.65272 2.04117
-2.09495 -1.5631 4.3273
-0.560142 -0.605575 2.39822
-2.58344 -0.923188 4.62412
-0.140323 -0.241603 0.56637
-0.449852 -0.586488 1.65636
-1.67373 -1.31752 3.96376
-0.358853 -0.689094 3.03074
-1.69022 -1.62426 3.6148
-1.28242 -1.23988 3.22313
-1.48251 -1.0049 3.72334
-1.83817 -0.823746 3.90092
-0.231905 -0.739758 2.31615
-0.247732 -0.960611 4.91574
-0.578168 -0.7479 1.73054
-0.661958 -0.815302 2.22619
-0.178449 -0.456728 1.12373
-1.56417 -0.0584651 3.78465
-1.54102 -0.716862 2.90689
-0.342017 -0.630131 2.30797
-0.73971 -0.689153 4.68568
-0.469654 -0.663418 1.49145
-2.10721 -1.63455 4.2592
-0.454189 -0.636357 3.30482
-0.153638 -0.684487 2.31781
-0.054915 -0.684567 1.60009
-1.26343 -1.32331 3.08922
-0.740874 -0.851314 2.3467
-2.03623 -0.719349 3.98869
-1.60517 -0.142471 3.78765
-0.235002 -0.389196 1.01295
-0.400689 -0.657318 2.43079
0.0892501 -0.798578 2.24665
-0.287954 -0.458974 1.10091
-0.286575 -0.579928 1.62313
-1.79682 -0.0223323 3.89705
-0.266811 -0.496591 1.02886
-0.469084 -0.602577 2.50775
-0.214278 -0.462513 0.922001
-0.475688 -0.655957 1.65881
-0.286605 -0.840018 2.45765
-0.543752 -0.769113 1.64738
-2.56254 -0.81581 4.60609
-0.355433 -0.716029 3.29354
0.0689328 -0.424952 3.1609
-2.54477 -1.70999 4.4745
-0.237156 -0.665985 2.26068
-2.04916 -1.76441 4.00252
-2.36533 -1.40213 4.38848
-0.623466 -0.688392 3.87827
-1.76019 -0.807245 3.85559
-1.89931 -1.48925 4.1244
-0.186819 -0.953319 3.47234
-1.16142 -1.24848 2.94492
-0.202148 -0.454906 0.920936
-0.228937 -0.467595 1.00842
-1.76098 -0.473391 3.89458
-1.15129 -1.05146 3.17241
-3.80981 -1.45399 6.61831
-1.27782 -1.28725 3.14922
0.112748 -0.698143 2.43385
-1.12803 -0.844095 3.18093
-1.39826 -1.10539 3.69167
-1.27111 -1.38353 3.05865
-0.57652 -0.738785 1.91711
-1.54246 -0.881329 4.53
-0.0570662 -0.663907 1.5048
-2.22686 -1.39611 4.24832
-0.210006 -0.709134 2.52758
-1.5489 -1.4594 3.32147
-2.13976 -1.60952 4.32966
-0.485363 -0.726285 4.64277
0.0408021 -0.739926 2.11217
-2.17809 -1.29488 4.13619
-0.485323 -0.614128 2.43906
-1.5983 -1.503 3.57573
-1.73475 -1.39839 3.93941
-0.200859 -0.46963 1.00951
-0.533965 -0.84566 1.81732
-1.62095 -0.381546 3.79801
-0.784547 -0.938283 2.32942
-1.58006 -1.25174 3.88056
-3.85842 -1.41739 6.79705
-1.06301 -0.887158 3.05155
-1.74721 -1.76751 3.71107
-1.90353 -1.54253 4.0296
-0.340907 -0.640585 2.11528
-0.577003 -0.61693 3.23328
-2.50087 -0.860395 4.61806
-1.88884 -1.01883 3.93647
-1.64416 -1.38059 3.7846
-2.19868 -1.40967 4.23027
-0.223415 -0.695768 2.57393
-0.717326 -0.942005 2.12995
0.0421365 -0.702161 1.88601
-1.72159 -0.0127214 3.83734
-0.42735 -0.646058 2.69089
-1.97881 -1.46835 4.29326
-0.710995 -0.782022 2.30319
-0.247007 -0.417314 0.957537
-0.443053 -0.773324 1.58283
-0.509405 -0.636228 3.03797
-0.250663 -0.589258 1.8029
-0.13722 -0.589503 1.36905
-1.82504 -1.59267 3.85485
0.109745 -0.408903 3.11869
-0.359364 -0.861028 4.91983
-0.308148 -0.67604 2.47801
0.0683313 -0.695931 1.73983
-0.955882 -1.17784 2.56081
-0.262205 -0.410145 1.03391
-1.99727 -0.801008 3.98947
-0.392614 -0.652836 3.10776
-0.215152 -0.885922 2.79498
0.0151477 -0.764389 1.79782
-2.11044 -1.33542 4.24777
-2.05796 -1.69626 4.10382
-0.686797 -0.727057 4.67868
-0.25328 -0.680644 2.39683
0.0232451 -0.677981 1.80149
-1.93774 -0.763351 3.95325
-2.31192 -1.72909 4.37558
-0.471481 -0.684506 1.49438
-0.936157 -0.890474 2.80731
-0.215825 -0.748983 2.81895
-0.404875 -0.630655 1.40884
-1.53835 -1.4957 3.45034
-1.30238 -1.21481 3.28878
-1.51284 -0.219393 3.78945
-1.30827 -0.921978 3.4557
-0.303427 -0.705476 3.07126
0.145843 -0.709345 3.67006
-0.433057 -0.594255 1.41247
-2.18131 -1.58755 4.42684
-0.106036 -0.594289 1.42576
-0.100435 -1.04821 5.39436
-1.70918 -0.788942 3.87662
-2.60714 -1.87881 4.53272
-0.310415 -0.69497 2.01927
0.0940208 -0.689927 1.87861
-0.151704 -0.580517 1.25828
-2.25089 -1.40816 4.25033
-0.863348 -0.957815 2.53012
-0.285689 -0.686416 2.36304
-1.90913 -1.7175 3.85755
-0.362719 -0.599371 1.29591
-1.13802 -0.978253 3.22641
-1.60839 -0.315149 3.79553
-1.93109 -1.51755 4.1182
-3.24222 -1.55152 5.89926
-1.87188 -1.65917 3.85149
-2.14341 -1.82761 4.00892
-0.119029 -0.611041 1.3521
-2.04933 -1.5072 4.34909
-0.246854 -0.677021 2.66612
-0.547071 -0.742894 1.80436
-1.86881 -0.917008 3.93167
-0.222712 -0.419309 1.10382
-0.319269 -0.708683 2.05695
-0.642526 -0.932153 1.98451
-1.67251 -1.47833 3.70467
-0.470595 -0.641876 3.0146
0.125193 -0.687864 2.2148
-1.75085 -0.194642 3.84574
-0.200099 -0.72724 2.38442
-0.815298 -1.02403 2.33706
-1.44708 -1.31082 3.47468
-0.605195 -0.553845 3.07796
-0.434588 -0.697661 1.52123
-0.193438 -0.775262 2.80316
-0.51889 -0.683967 1.60346
-1.10129 -1.07123 2.98644
-0.160554 -0.464195 1.01046
-2.09823 -1.28718 4.11951
-1.18373 -1.23048 3.00542
-0.309384 -0.566147 1.62391
-0.460708 -0.631114 2.7746
-1.59171 -1.55697 3.40487
-1.46289 -1.00369 3.71206
-2.0477 -0.669173 3.98779
-1.17298 -1.17841 3.03198
-0.356902 -0.70177 2.17406
-0.5317 -0.601425 2.96139
-0.164563 -0.295459 0.653879
-0.0420105 -0.6611 1.5039
-1.65511 -0.0618012 3.8365
-2.04302 -1.5719 4.2221
-0.40089 -0.661685 2.35317
-0.81092 -0.689376 4.58308
-0.344501 -0.537721 1.27021
-0.0773457 -0.656204 1.71758
-1.84051 -1.45039 4.07867
-0.382377 -0.665356 2.61971
-1.81706 -1.15664 3.96526
-2.20756 -1.75015 4.27971
-0.77678 -1.12112 2.30951
-0.494378 -0.625639 2.84651
-1.17077 -1.04207 3.24349
