ply
format ascii 1.0
element vertex 474
property float x
property float y
property float z
end_header
-0.417997 -0.70235 1.46428
-1.86881 -0.917008 3.93167
-0.636254 -0.928936 1.97532
-0.319269 -0.708683 2.05695
-0.065911 0.0368182 0.0442091
-0.0740111 0.0407329 0.0698532
0.125193 -0.687864 2.2148
-1.44911 -1.31482 3.47735
-0.605195 -0.553845 3.07796
-2.26455 -1.06657 4.26578
-0.51889 -0.683967 1.60346
-0.193438 -0.775262 2.80316
-0.0606773 0.0606921 0.103103
-2.09823 -1.28718 4.11951
-0.309384 -0.566147 1.62391
-1.46289 -1.00369 3.71206
-0.337479 -0.0456 2.50485
-0.5317 -0.601425 2.96139
-1.17229 -1.18059 3.03101
-0.155454 -0.289379 0.64773
-1.65495 -0.0569802 3.83998
-0.40089 -0.661685 2.35317
-0.0773457 -0.656204 1.71758
-0.0792786 0.0326518 0.0469449
-1.81706 -1.15664 3.96526
-1.84578 -1.45562 4.08447
-2.21373 -1.75738 4.28424
-0.479714 -0.159359 2.36229
-0.601817 -0.677613 2.00189
-0.494378 -0.625639 2.84651
-2.11044 -1.33542 4.24777
-0.392614 -0.652836 3.10776
-0.0755541 0.0246059 0.00368215
0.0316179 -0.675877 1.79353
-0.25328 -0.680644 2.39683
-2.31902 -1.73485 4.37996
-0.339736 0.0136506 2.50118
-1.51275 -0.218389 3.78993
-0.936157 -0.890474 2.80731
-1.54172 -1.50041 3.45404
0.150185 -0.705045 3.68603
-0.303427 -0.705476 3.07126
-2.1872 -1.59399 4.43175
-0.0671926 0.041754 0.0700716
-0.249272 -0.15035 1.50728
-0.0976552 -0.591806 1.41747
-2.60714 -1.87881 4.53272
-2.25089 -1.40816 4.25033
-0.1426 -0.577552 1.24976
-1.91467 -1.72436 3.86201
-0.285689 -0.686416 2.36304
-0.0646019 -0.155349 1.59668
-0.0561129 0.018447 -0.00895291
-0.355096 -0.595006 1.28826
-1.93631 -1.52377 4.12354
-0.220522 -0.110378 1.60742
-0.110187 -0.608486 1.3436
-0.53983 -0.738492 1.79485
-0.246854 -0.677021 2.66612
-1.5489 -1.4594 3.32147
-0.210006 -0.709134 2.52758
-0.336211 0.0598622 2.50382
0.0476952 -0.739118 2.10386
-1.73954 -1.40471 3.94469
-0.192103 -0.464959 1.0025
-1.62095 -0.381546 3.79801
-3.85842 -1.41739 6.79705
-0.77993 -0.937048 2.32421
-0.0685029 0.0158478 -0.0100484
-1.74962 -1.77058 3.71686
-0.340907 -0.640585 2.11528
-2.50087 -0.860395 4.61806
-0.547264 -0.142347 2.56934
-2.19868 -1.40967 4.23027
-1.64848 -1.38621 3.78908
-0.0527758 -0.100113 2.0419
-0.717326 -0.942005 2.12995
-1.74415 -0.00209576 3.82682
-0.42735 -0.646058 2.69089
-0.0785824 0.0483787 0.0969846
-0.444587 -0.776969 1.58299
-0.12808 -0.58674 1.36049
-0.250663 -0.589258 1.8029
-1.83077 -1.59839 3.86028
-0.811446 -0.320272 3.37419
-0.359364 -0.861028 4.91983
0.00650419 -0.584617 1.90405
-1.99727 -0.801008 3.98947
-0.951677 -1.17398 2.54837
-0.0732189 -0.151166 1.82058
-0.469654 -0.663418 1.49145
-0.0457695 -0.682032 1.5917
-0.153638 -0.684487 2.31781
-0.740874 -0.851314 2.3467
-0.0833667 0.0208628 -0.0200023
-1.79682 -0.0223323 3.89705
-0.235002 -0.389196 1.01295
-0.0518552 -0.587652 1.89804
-0.279644 -0.453571 1.09362
-0.216546 -0.462775 0.923331
-0.469084 -0.602577 2.50775
-0.543752 -0.769113 1.64738
-0.286605 -0.840018 2.45765
-0.132986 -0.536348 1.61539
-2.56254 -0.81581 4.60609
-2.54477 -1.70999 4.4745
-0.0595898 0.0245488 0.00370645
-1.76019 -0.807245 3.85559
-0.623466 -0.688392 3.87827
-1.16039 -1.2501 2.94348
-0.186819 -0.953319 3.47234
-0.204416 -0.455169 0.922265
-1.15129 -1.05146 3.17241
-0.049814 0.0117414 -0.030324
-1.88753 -0.916568 4.03157
-1.12803 -0.844095 3.18093
-0.57652 -0.738785 1.91711
-1.54246 -0.881329 4.53
-2.22686 -1.39611 4.24832
-2.04771 -0.858823 4.16087
-2.10041 -1.33351 4.19486
-1.33862 -1.36699 3.19767
-0.428337 -0.607977 2.31075
-0.0843245 0.0365943 0.0539059
0.0635867 -0.547205 3.28404
-1.22974 -1.10665 3.27134
-0.367236 -0.0345391 2.50412
0.0390521 -0.692519 1.73107
-1.51291 -1.39145 3.52375
-0.219098 -1.00564 4.59981
-0.141074 -0.199298 0.614353
-1.80567 -1.66055 3.78599
-1.65385 -0.284909 3.84525
-0.232345 -0.699079 2.38376
-0.0384258 0.0410968 0.0140028
0.0772762 -0.650909 2.03336
-2.10062 -1.56945 4.33232
-2.58344 -0.923188 4.62412
-0.131299 -0.235342 0.560332
-1.06898 -0.295877 3.5936
-0.358853 -0.689094 3.03074
-0.0597034 -0.163971 2.04402
-1.83817 -0.823746 3.90092
-1.69447 -1.6306 3.61879
-0.231905 -0.739758 2.31615
-0.169924 -0.45316 1.11638
-0.661958 -0.815302 2.22619
-0.0487666 0.0495704 0.0604942
-0.73971 -0.689153 4.68568
-1.00261 -0.939466 3.02198
-0.172579 -0.322838 0.922983
-1.83936 -0.0469464 3.92951
-0.324045 -0.494947 1.1291
0.0704758 -0.741712 2.72195
-0.527657 -0.594155 2.6664
-1.41007 -1.25982 3.49739
-0.0422647 0.0425506 0.019661
-0.0165475 -0.713746 1.61953
-1.01217 -1.11562 2.73156
-0.258475 -0.142408 1.4435
-0.0328678 -0.731884 1.5406
-3.46187 -0.927634 6.21719
-1.09834 -1.26671 2.80374
-0.285344 -0.704893 2.18236
-0.068601 -0.606421 1.68521
-0.207749 -0.49084 0.971913
-1.48866 -1.31526 3.56182
-0.0573573 0.058545 0.0894557
-0.510461 -0.0407522 2.5458
-0.954909 -0.831029 2.89827
-0.718277 -0.90985 2.17598
-0.274501 -0.651948 2.55248
-1.9502 -1.0204 3.97942
-1.6854 -1.30249 4.02324
-0.072756 0.0482914 0.0924066
-0.0716766 0.0381981 0.04564
0.0647493 -0.711152 1.96306
-1.78884 -1.49186 3.90553
-1.56343 -0.818869 4.58815
-1.49716 -1.40836 3.45705
0.07024 -1.17286 5.38115
-0.0606255 0.0155358 -0.0119474
0.0152845 -0.761815 2.40143
-0.250591 -0.718424 2.27
-0.888864 -0.276839 3.37144
-0.00454731 -0.764446 1.77149
-1.75967 -1.44839 3.92055
0.0281411 0.0497009 -0.120806
-0.0391184 -0.0666099 2.04128
-1.78705 -1.6763 3.73437
-2.11748 -1.29126 4.09444
-0.310662 -0.653477 2.55899
-0.0944396 0.0394833 0.0773717
-0.529149 -0.884674 1.81367
-1.47802 -1.19686 3.74229
-1.19889 -0.92819 3.3006
-2.48943 -1.85797 4.34251
-0.800593 -0.17485 3.37024
-0.58655 -0.60439 3.27792
-2.00041 -1.58511 4.14596
-0.0771892 0.00657478 0.000896803
-1.63659 -0.809458 3.81891
-1.46229 -1.50842 3.15035
-0.57924 -0.632914 2.42496
-1.25305 -0.773472 3.32301
-0.0441308 0.0136388 -0.0231252
-1.14247 -0.881779 3.18163
-1.57353 -1.28933 3.8101
-2.07902 -0.862254 4.17792
-0.879134 -1.05096 2.47335
-0.84613 -0.23842 3.37308
-0.628914 -0.833138 1.99269
-0.610793 -0.624143 2.5336
-0.336619 -0.570441 1.19948
-1.96349 -1.41554 4.37937
-0.0791771 0.0515164 0.114014
-0.106984 -0.703105 1.51838
-0.147764 -0.634942 1.65262
-0.0715077 0.0311015 0.0270822
-0.0140698 -0.749669 1.58445
-0.481275 -0.617535 3.24507
-1.66533 -1.55287 3.63052
-0.204173 -0.369037 0.96151
-0.240896 -0.680091 2.49568
-0.269781 -0.664874 1.88669
-0.0447156 0.01293 -0.0279529
-1.48508 -0.294057 3.85442
-0.980227 -0.823457 2.96554
-1.07832 -1.13026 2.87429
-1.91476 -0.848738 3.95466
-0.432717 -0.63206 3.03324
-0.88581 -1.07253 2.47422
-0.21482 -0.702878 2.3579
-0.0631172 -0.0241026 0.113711
-0.730986 -0.153974 3.0383
0.00378754 -0.716177 1.95446
-0.145859 -0.619561 1.6891
-1.51501 -0.0669189 3.78611
-0.174434 -0.444404 1.00129
-0.794331 -0.253367 3.37168
-0.222712 -0.419309 1.10382
-1.67678 -1.48321 3.70939
-0.470595 -0.641876 3.0146
-1.74982 -0.189427 3.84549
-0.811087 -1.02302 2.33164
-0.200099 -0.72724 2.38442
-0.0630185 0.0268713 0.00625148
-0.0725217 -0.050991 0.255854
-0.427431 -0.693772 1.51309
-1.10148 -1.07607 2.98116
-0.151322 -0.460148 1.00207
-0.823217 -0.284878 3.37657
-0.460708 -0.631114 2.7746
-1.1828 -1.23254 3.00445
-0.120233 -0.545209 1.46244
-1.59171 -1.55697 3.40487
-2.0477 -0.669173 3.98779
-0.356902 -0.70177 2.17406
-0.0329613 -0.658339 1.49539
-0.0508755 0.0164522 -0.0183842
-0.81092 -0.689376 4.58308
-2.04866 -1.57823 4.22727
-0.336636 -0.532921 1.26295
0.103162 -0.544427 1.90078
-0.382377 -0.665356 2.61971
-0.772585 -1.11625 2.29574
-0.0603397 0.0191873 -0.014708
-2.47989 -1.04985 4.5788
-1.17077 -1.04207 3.24349
0.0151477 -0.764389 1.79782
-0.215152 -0.885922 2.79498
-2.06222 -1.69502 4.10556
-0.233004 -0.11472 1.8416
-1.93774 -0.763351 3.95325
-0.686797 -0.727057 4.67868
-0.471481 -0.684506 1.49438
-0.158568 -0.0149664 1.58471
-0.397494 -0.626295 1.40114
-0.215825 -0.748983 2.81895
-1.30542 -1.21983 3.28808
-0.0455214 0.00919627 -0.0299622
-0.650081 -0.200261 2.86011
-1.30827 -0.921978 3.4557
-0.433057 -0.594255 1.41247
-1.70918 -0.788942 3.87662
-0.100435 -1.04821 5.39436
-0.310415 -0.69497 2.01927
-0.0583619 0.0209886 -0.00825761
-0.0658694 0.0459719 0.0828551
0.102247 -0.688412 1.87089
-0.859875 -0.957194 2.52656
-1.60747 -0.309933 3.79512
-1.13802 -0.978253 3.22641
-1.87737 -1.66571 3.85615
-3.24222 -1.55152 5.89926
-2.14742 -1.8266 4.01065
-2.05478 -1.51354 4.35444
-2.14572 -1.61585 4.33449
-0.485363 -0.726285 4.64277
-0.0662639 0.0221733 -0.00267904
-2.17809 -1.29488 4.13619
-1.60209 -1.50774 3.5801
-0.485323 -0.614128 2.43906
-0.05298 0.0329203 0.0194033
-0.527124 -0.842167 1.80812
-1.58006 -1.25174 3.88056
-1.06301 -0.887158 3.05155
-0.271275 -0.102577 1.68719
-0.577003 -0.61693 3.23328
-1.90879 -1.54897 4.03488
-0.0606986 0.0210102 -0.0132098
-1.88884 -1.01883 3.93647
-0.223415 -0.695768 2.57393
-0.067971 0.0288025 0.0207365
0.0494685 -0.700337 1.87801
-0.710995 -0.782022 2.30319
-1.98415 -1.47448 4.29879
-0.238484 -0.411918 0.95061
-1.55313 -0.21695 3.85986
-0.509405 -0.636228 3.03797
-0.0688418 0.0196799 -0.00765539
0.109745 -0.408903 3.11869
-0.308148 -0.67604 2.47801
0.0777341 -0.694019 1.73185
-0.262205 -0.410145 1.03391
-0.446621 0.0197721 2.49839
-2.11334 -1.64091 4.2638
-0.0710354 0.0611771 0.132864
-2.03623 -0.719349 3.98869
-0.454189 -0.636357 3.30482
-1.60429 -0.137145 3.78704
-1.26352 -1.32588 3.08847
0.0892501 -0.798578 2.24665
-0.400689 -0.657318 2.43079
-0.286575 -0.579928 1.62313
-0.0614545 0.0133563 -0.0129111
-0.258603 -0.491555 1.02133
-0.475688 -0.655957 1.65881
-0.878689 -0.32841 3.37951
0.0745524 -0.429003 3.15973
-0.355433 -0.716029 3.29354
-2.05574 -1.77166 4.00746
-0.237156 -0.665985 2.26068
-0.154548 -0.192917 0.543804
-2.36533 -1.40213 4.38848
-1.90444 -1.49545 4.12965
-0.0713223 0.021654 -0.00865044
-1.76098 -0.473391 3.89458
-0.219996 -0.462985 1.00114
-1.2776 -1.28981 3.14866
-3.80981 -1.45399 6.61831
0.111692 -0.70401 2.43361
-1.27149 -1.38582 3.05834
-1.39826 -1.10539 3.69167
-0.591829 -0.264057 2.57417
-0.0397118 0.0580879 1.7142
-0.0480073 -0.661321 1.4964
-0.0561921 0.00470262 -0.0155042
-0.317336 -0.563507 1.14804
-1.22578 -1.15824 3.17457
-0.444492 -0.261977 2.1514
-2.23203 -0.996937 4.47545
-0.390829 -0.659238 2.74233
-0.201322 -0.343605 0.828196
-0.14298 -0.38794 1.20133
-0.414779 -0.624328 1.35887
-0.000699067 -0.752076 1.61825
-1.86784 -1.34335 4.30746
-0.0582711 0.0409211 0.0474349
-0.549329 -0.877101 1.8132
-0.143029 -0.515262 1.36098
-1.54374 -0.776384 4.76384
-0.196462 -0.346787 0.802709
-0.583916 -0.230013 2.57287
-0.560142 -0.605575 2.39822
-0.0609111 0.0228462 -0.00574521
-0.449852 -0.586488 1.65636
-1.67824 -1.32614 3.96349
-1.48251 -1.0049 3.72334
-1.28206 -1.24297 3.22308
-0.0725109 0.0137259 -0.0097346
-0.247732 -0.960611 4.91574
-1.56405 -0.0536314 3.78798
-0.578168 -0.7479 1.73054
-0.342017 -0.630131 2.30797
-1.54102 -0.716862 2.90689
-2.85693 -1.33644 5.50289
-0.36017 -0.582051 1.3102
-0.944863 -0.999685 2.70378
-0.0679734 0.0350816 0.0399421
-1.20004 -0.855134 3.29882
-0.610871 -0.287919 2.57306
-1.05451 -1.17666 2.77251
-2.04572 -0.792443 3.99769
-0.404383 -0.69536 3.4672
-1.39793 -1.1935 3.57281
-0.0718011 0.0297274 0.0158535
0.0711599 -0.700692 1.87762
-0.448717 -0.617256 1.608
-0.0874175 0.0354847 0.0384563
-1.81667 -0.232954 3.9432
-0.126636 -0.594164 1.24974
-0.651689 -0.856206 1.97752
-0.207524 -0.72459 2.54968
-0.156478 -0.555039 1.1424
-1.14848 -1.08507 3.09842
-0.0619471 0.067189 0.116426
-0.987501 -0.335527 3.42789
-0.0731425 -0.645539 1.49573
-1.22826 -1.24222 3.09702
-1.69847 -0.655301 3.14787
-1.69176 -0.0998418 3.83826
-0.159996 -0.442977 1.001
-0.592626 -0.784494 1.76605
-0.476288 -0.670962 2.26448
-0.0358036 -0.149165 2.04291
-1.2704 -1.11097 3.37205
-0.558483 -0.707927 1.83086
-0.338152 -0.430466 1.24187
-0.957651 -1.03313 2.69973
-1.47323 -0.862596 4.63879
-0.0884637 0.0416892 0.0639896
-2.24955 -1.35289 4.14284
-0.394077 -0.638272 2.37653
-0.0508512 0.0354926 0.0202915
0.0207433 -0.726876 2.02795
-1.54336 -1.30005 3.73097
-0.379411 -0.508477 1.38011
-0.368082 -0.536659 1.24732
-1.67708 -0.209204 3.84367
-1.54309 -0.905434 4.43609
-1.02194 -1.10556 2.77851
-0.0866096 0.0360083 0.0458919
0.0873746 -0.684298 2.41811
-0.276512 -0.680756 2.2888
-0.052945 -0.653746 1.64142
-0.875419 -0.358822 3.38013
-1.92658 -1.21748 4.05026
-0.117348 -0.666754 1.8331
-0.122648 -0.127858 0.380047
-1.56051 0.00817542 3.78592
-1.35379 -1.4054 3.19349
-0.187469 -0.506874 1.05658
-1.42694 -0.939583 4.19375
-0.0793504 0.0123187 0.00038074
-0.961266 -0.96211 2.79896
-0.0513189 0.0652108 0.079361
-0.92396 -0.910335 2.84766
-2.07831 -1.67606 4.15711
-0.556081 -0.19711 2.57315
-1.60677 -1.69782 3.56812
-0.578057 -0.588048 2.79022
-0.416886 -0.604255 1.36387
-0.148289 -0.22077 0.702567
-1.97369 -0.549824 4.2697
-0.220909 -0.671507 2.21646
-0.889452 -0.943517 2.62164
-0.0754782 0.0225766 -0.00278473
-1.72424 -0.327997 3.84902
-0.242206 -0.46139 1.00132
-0.143173 -0.252654 0.602497
-0.276517 -0.467961 1.02827
-0.296149 -0.666739 2.76285
-0.768796 -1.01625 2.2223
-1.57868 -1.19566 3.90858
-0.129153 -0.517567 1.31227
-0.525757 -0.210129 2.44808
-0.135191 -0.525067 1.224
-0.509103 -0.66309 1.80635
-1.76868 -0.91531 3.88183
-0.867756 -0.660024 4.53397
-2.22849 -1.8246 4.25476
-0.451186 -0.668911 2.60756
-0.0483033 0.0116922 -0.027326
