ply
format ascii 1.0
element vertex 398
property float x
property float y
property float z
end_header
-0.63371 -0.836069 1.99802
-0.961266 -0.96211 2.79896
-2.47989 -1.04985 4.5788
-0.601817 -0.677613 2.00189
-0.84613 -0.23842 3.37308
-0.336619 -0.570441 1.19948
-0.610793 -0.624143 2.5336
-2.07639 -1.66893 4.15504
-1.9584 -1.41155 4.37689
-0.92396 -0.910335 2.84766
-0.556081 -0.19711 2.57315
-0.578057 -0.588048 2.79022
-1.6054 -1.69442 3.56438
-0.106984 -0.703105 1.51838
-0.147764 -0.634942 1.65262
-0.416886 -0.604255 1.36387
-0.481275 -0.617535 3.24507
-0.220909 -0.671507 2.21646
-1.97369 -0.549824 4.2697
-0.889452 -0.943517 2.62164
-0.0164197 -0.752307 1.58736
-1.66435 -1.54798 3.62612
-0.24829 -0.464895 1.00896
-0.240896 -0.680091 2.49568
-0.204173 -0.369037 0.96151
-0.269781 -0.664874 1.88669
-1.72424 -0.327997 3.84902
-0.14891 -0.255547 0.610307
-0.980227 -0.823457 2.96554
-0.296149 -0.666739 2.76285
-1.48508 -0.294057 3.85442
-0.282392 -0.471296 1.03612
-1.57868 -1.19566 3.90858
-0.77159 -1.01921 2.22821
-1.07924 -1.12939 2.87212
-0.14145 -0.530293 1.23104
-0.432717 -0.63206 3.03324
-1.91476 -0.848738 3.95466
-0.525757 -0.210129 2.44808
-0.21482 -0.702878 2.3579
-0.889068 -1.0728 2.47456
-0.509103 -0.66309 1.80635
-0.00016297 -0.726152 1.96014
-0.867756 -0.660024 4.53397
-1.76868 -0.91531 3.88183
-0.145859 -0.619561 1.6891
-0.451186 -0.668911 2.60756
-2.22576 -1.80869 4.25186
-0.730986 -0.153974 3.0383
-0.417997 -0.70235 1.46428
-0.180536 -0.448296 1.00873
-1.51501 -0.0669189 3.78611
-1.2704 -1.11097 3.37205
-1.49629 -1.40496 3.4532
0.07024 -1.17286 5.38115
0.0125659 -0.775128 2.40843
-0.338152 -0.430466 1.24187
-0.558483 -0.707927 1.83086
-0.250591 -0.718424 2.27
-0.958991 -1.03396 2.69902
-1.47323 -0.862596 4.63879
-2.24955 -1.35289 4.14284
-0.00454731 -0.764446 1.77149
-0.870845 -0.282594 3.37813
-0.394077 -0.638272 2.37653
0.0281411 0.0497009 -0.120806
-1.75623 -1.44421 3.91643
-2.11748 -1.29126 4.09444
-1.78727 -1.66956 3.72985
0.0171576 -0.737851 2.03356
-0.379411 -0.508477 1.38011
-1.53938 -1.29669 3.72803
-0.310662 -0.653477 2.55899
-0.368082 -0.536659 1.24732
-0.529149 -0.884674 1.81367
-1.67708 -0.209204 3.84367
-1.0231 -1.10514 2.77684
-1.47802 -1.19686 3.74229
-1.54309 -0.905434 4.43609
-2.48943 -1.85797 4.34251
-1.19889 -0.92819 3.3006
0.0873746 -0.684298 2.41811
-0.800593 -0.17485 3.37024
-1.9975 -1.57869 4.14283
-0.276512 -0.680756 2.2888
-0.58655 -0.60439 3.27792
-1.46229 -1.50842 3.15035
-0.0581066 -0.661857 1.64754
-1.63659 -0.809458 3.81891
-0.875419 -0.358822 3.38013
-0.117348 -0.666754 1.8331
-0.57924 -0.632914 2.42496
-1.35464 -1.40185 3.19066
-1.92658 -1.21748 4.05026
-1.25305 -0.773472 3.32301
-1.56051 0.00817542 3.78592
-1.42694 -0.939583 4.19375
-1.56912 -1.28683 3.80725
-1.14247 -0.881779 3.18163
-0.882163 -1.05132 2.47367
-0.187469 -0.506874 1.05658
-2.07902 -0.862254 4.17792
-1.00261 -0.939466 3.02198
-2.85693 -1.33644 5.50289
-0.366012 -0.585907 1.31788
-0.324045 -0.494947 1.1291
-0.946416 -1.00086 2.70156
-1.83936 -0.0469464 3.92951
-1.20004 -0.855134 3.29882
-0.527657 -0.594155 2.6664
0.0704758 -0.741712 2.72195
-1.05658 -1.17575 2.77068
-1.40773 -1.25803 3.49553
-0.610871 -0.287919 2.57306
-0.404383 -0.69536 3.4672
-2.04572 -0.792443 3.99769
-0.0231305 -0.722177 1.62555
-1.01378 -1.11517 2.72998
-1.39452 -1.19232 3.56998
-0.254496 -0.145348 1.44922
-3.46187 -0.927634 6.21719
-0.0352268 -0.734592 1.54351
0.0663091 -0.712024 1.88294
-0.448717 -0.617256 1.608
-0.285344 -0.704893 2.18236
-1.09331 -1.26289 2.80357
-0.133668 -0.599539 1.25669
-1.81667 -0.232954 3.9432
-0.207749 -0.49084 0.971913
-1.48661 -1.31268 3.5586
-0.207524 -0.72459 2.54968
-0.651689 -0.856206 1.97752
-0.954909 -0.831029 2.89827
-0.506756 -0.0522524 2.5492
-0.156478 -0.555039 1.1424
-1.14848 -1.08507 3.09842
-0.274501 -0.651948 2.55248
-0.722238 -0.911784 2.17933
-0.0796696 -0.652709 1.50231
-1.9502 -1.0204 3.97942
-1.6854 -1.30249 4.02324
-0.967179 -0.343274 3.43187
-1.69847 -0.655301 3.14787
-1.22881 -1.24019 3.09435
0.0607132 -0.722832 1.96825
-0.166107 -0.446863 1.00831
-1.69176 -0.0998418 3.83826
-0.476288 -0.670962 2.26448
-0.592626 -0.784494 1.76605
-1.78592 -1.48723 3.90139
-1.56343 -0.818869 4.58815
-2.10041 -1.33351 4.19486
-0.317336 -0.563507 1.14804
-2.04771 -0.858823 4.16087
-0.428337 -0.607977 2.31075
-1.33916 -1.36437 3.19534
-1.22503 -1.1569 3.17278
0.067724 -0.55219 3.28122
-2.23203 -0.996937 4.47545
-0.444492 -0.261977 2.1514
-0.206993 -0.347049 0.835824
-1.22974 -1.10665 3.27134
-0.390829 -0.659238 2.74233
-0.414779 -0.624328 1.35887
0.0331212 -0.70231 1.73674
-0.00303813 -0.754672 1.62117
-0.359723 -0.0481537 2.5098
-1.51181 -1.38834 3.52002
-1.86784 -1.34335 4.30746
-0.219098 -1.00564 4.59981
-1.80554 -1.65382 3.78155
-0.549329 -0.877101 1.8132
-1.65385 -0.284909 3.84525
-0.143029 -0.515262 1.36098
-0.232345 -0.699079 2.38376
-1.54374 -0.776384 4.76384
-0.202222 -0.349952 0.810306
0.0739239 -0.663079 2.03896
-0.583916 -0.230013 2.57287
-2.09669 -1.56323 4.32986
-0.560142 -0.605575 2.39822
-2.58344 -0.923188 4.62412
-0.136974 -0.238046 0.56824
-0.449852 -0.586488 1.65636
-1.05503 -0.305256 3.59413
-1.67412 -1.32333 3.96192
-0.358853 -0.689094 3.03074
-1.69536 -1.62424 3.61442
-1.2823 -1.24144 3.22136
-1.48251 -1.0049 3.72334
-1.83817 -0.823746 3.90092
-0.231905 -0.739758 2.31615
-0.247732 -0.960611 4.91574
-0.578168 -0.7479 1.73054
-0.661958 -0.815302 2.22619
-0.175642 -0.457803 1.12366
-1.56405 -0.0536314 3.78798
-1.54102 -0.716862 2.90689
-0.342017 -0.630131 2.30797
-0.73971 -0.689153 4.68568
-0.469654 -0.663418 1.49145
-2.11036 -1.6341 4.26143
-0.454189 -0.636357 3.30482
-0.153638 -0.684487 2.31781
-0.0522873 -0.690331 1.59784
-1.26455 -1.32395 3.08662
-0.740874 -0.851314 2.3467
-2.03623 -0.719349 3.98869
-1.60429 -0.137145 3.78704
-0.235002 -0.389196 1.01295
-0.400689 -0.657318 2.43079
0.0892501 -0.798578 2.24665
-0.285214 -0.457441 1.10154
-0.286575 -0.579928 1.62313
-1.79682 -0.0223323 3.89705
-0.0547892 -0.597289 1.90381
-0.264909 -0.49492 1.02895
-0.469084 -0.602577 2.50775
-0.216546 -0.462775 0.923331
-0.475688 -0.655957 1.65881
-0.286605 -0.840018 2.45765
-0.878689 -0.32841 3.37951
-0.543752 -0.769113 1.64738
-2.56254 -0.81581 4.60609
-0.355433 -0.716029 3.29354
0.0745524 -0.429003 3.15973
-2.54477 -1.70999 4.4745
-0.237156 -0.665985 2.26068
-2.05479 -1.76265 4.00358
-2.36533 -1.40213 4.38848
-0.623466 -0.688392 3.87827
-1.76019 -0.807245 3.85559
-1.90068 -1.49017 4.12641
-0.186819 -0.953319 3.47234
-1.16179 -1.2486 2.94102
-0.204416 -0.455169 0.922265
-0.226202 -0.466636 1.00851
-1.76098 -0.473391 3.89458
-1.15129 -1.05146 3.17241
-3.80981 -1.45399 6.61831
-1.27853 -1.28772 3.14674
0.111692 -0.70401 2.43361
-1.12803 -0.844095 3.18093
-1.88753 -0.916568 4.03157
-1.39826 -1.10539 3.69167
-1.27178 -1.38454 3.05927
-0.57652 -0.738785 1.91711
-1.54246 -0.881329 4.53
-0.0546728 -0.669024 1.5027
-2.22686 -1.39611 4.24832
-0.210006 -0.709134 2.52758
-0.591829 -0.264057 2.57417
-1.5489 -1.4594 3.32147
-2.14219 -1.60905 4.3323
-0.485363 -0.726285 4.64277
0.0437298 -0.750909 2.10938
-2.17809 -1.29488 4.13619
-0.485323 -0.614128 2.43906
-0.337592 0.0575476 2.50683
-1.60113 -1.50377 3.57554
-1.73553 -1.40096 3.94075
-0.198388 -0.468668 1.00964
-0.532418 -0.848325 1.81593
-1.62095 -0.381546 3.79801
-0.783057 -0.938438 2.32609
-1.58006 -1.25174 3.88056
-3.85842 -1.41739 6.79705
-1.06301 -0.887158 3.05155
-1.74844 -1.76602 3.71282
-0.264399 -0.103898 1.69275
-1.90604 -1.54295 4.03147
-0.340907 -0.640585 2.11528
-0.577003 -0.61693 3.23328
-2.50087 -0.860395 4.61806
-1.88884 -1.01883 3.93647
-0.547264 -0.142347 2.56934
-1.64515 -1.38292 3.78536
-2.19868 -1.40967 4.23027
-0.223415 -0.695768 2.57393
-0.717326 -0.942005 2.12995
0.0456461 -0.711182 1.88348
-1.74415 -0.00209576 3.82682
-0.42735 -0.646058 2.69089
-1.97929 -1.46944 4.29587
-0.710995 -0.782022 2.30319
-1.55313 -0.21695 3.85986
-0.244219 -0.415241 0.958219
-0.444587 -0.776969 1.58299
-0.509405 -0.636228 3.03797
-0.250663 -0.589258 1.8029
-0.134638 -0.592684 1.36738
-0.811446 -0.320272 3.37419
-1.82871 -1.59276 3.85596
0.109745 -0.408903 3.11869
-0.359364 -0.861028 4.91983
-0.308148 -0.67604 2.47801
0.0714519 -0.704488 1.73709
-0.954173 -1.17614 2.5529
-0.262205 -0.410145 1.03391
-1.99727 -0.801008 3.98947
-0.440279 0.00778499 2.50221
-0.392614 -0.652836 3.10776
-0.215152 -0.885922 2.79498
0.0151477 -0.764389 1.79782
-2.11044 -1.33542 4.24777
-2.06222 -1.69502 4.10556
-0.233004 -0.11472 1.8416
-0.686797 -0.727057 4.67868
-0.25328 -0.680644 2.39683
0.0268887 -0.685995 1.79924
-1.93774 -0.763351 3.95325
-2.31634 -1.7266 4.37834
-0.331447 -0.000284215 2.50776
-0.471481 -0.684506 1.49438
-0.936157 -0.890474 2.80731
-0.215825 -0.748983 2.81895
-0.403403 -0.630133 1.40887
-1.54157 -1.49623 3.44965
-1.30404 -1.21818 3.28669
-1.51275 -0.218389 3.78993
-1.30827 -0.921978 3.4557
-0.303427 -0.705476 3.07126
-0.650081 -0.200261 2.86011
0.145843 -0.709345 3.67006
-0.433057 -0.594255 1.41247
-2.1829 -1.58741 4.42973
-0.103354 -0.598222 1.42412
-0.100435 -1.04821 5.39436
-1.70918 -0.788942 3.87662
-2.60714 -1.87881 4.53272
-0.310415 -0.69497 2.01927
-0.244213 -0.152544 1.51289
0.0971863 -0.699767 1.87575
-0.149348 -0.582685 1.25668
-2.25089 -1.40816 4.25033
-0.86167 -0.95868 2.52694
-0.285689 -0.686416 2.36304
-1.91432 -1.71671 3.85833
-0.361137 -0.598653 1.29584
-1.13802 -0.978253 3.22641
-1.60747 -0.309933 3.79512
-1.93284 -1.51816 4.12032
-3.24222 -1.55152 5.89926
-1.87666 -1.65856 3.85227
-2.14742 -1.8266 4.01065
-0.11657 -0.614281 1.35029
-0.220522 -0.110378 1.60742
-2.05017 -1.50792 4.35172
-0.246854 -0.677021 2.66612
-0.545382 -0.742937 1.80333
-1.86881 -0.917008 3.93167
-0.222712 -0.419309 1.10382
-0.794331 -0.253367 3.37168
-0.319269 -0.708683 2.05695
-0.642322 -0.932009 1.98151
-1.67505 -1.47914 3.70508
-0.470595 -0.641876 3.0146
0.125193 -0.687864 2.2148
-1.74982 -0.189427 3.84549
-0.200099 -0.72724 2.38442
-0.81473 -1.02372 2.33272
-1.44752 -1.31251 3.47369
-0.605195 -0.553845 3.07796
-0.433601 -0.697815 1.52098
-2.26455 -1.06657 4.26578
-0.193438 -0.775262 2.80316
-0.51889 -0.683967 1.60346
-1.10148 -1.07607 2.98116
-0.157768 -0.464144 1.00955
-2.09823 -1.28718 4.11951
-0.823217 -0.284878 3.37657
-1.18368 -1.23052 3.00151
-0.309384 -0.566147 1.62391
-0.460708 -0.631114 2.7746
-1.59171 -1.55697 3.40487
-1.46289 -1.00369 3.71206
-2.0477 -0.669173 3.98779
-0.330256 -0.060056 2.50907
-1.17243 -1.17913 3.02841
-0.356902 -0.70177 2.17406
-0.5317 -0.601425 2.96139
-0.161371 -0.292223 0.655511
-0.0396398 -0.666203 1.5017
-1.65495 -0.0569802 3.83998
-2.04529 -1.57193 4.22442
-0.40089 -0.661685 2.35317
-0.81092 -0.689376 4.58308
-0.342188 -0.536846 1.27051
-0.0773457 -0.656204 1.71758
0.100345 -0.556288 1.9061
-1.84157 -1.45165 4.08065
-0.382377 -0.665356 2.61971
-1.81706 -1.15664 3.96526
-2.21193 -1.74898 4.28205
-0.775503 -1.11943 2.30166
-0.479714 -0.159359 2.36229
-0.494378 -0.625639 2.84651
-1.17077 -1.04207 3.24349
