ply
format ascii 1.0
element vertex 467
property float x
property float y
property float z
end_header
-0.417997 -0.70235 1.46428
-1.86881 -0.917008 3.93167
-0.63598 -0.929035 1.97538
-0.319269 -0.708683 2.05695
-0.0685188 0.0352092 0.0469519
-0.0766474 0.0390493 0.0725243
0.125193 -0.687864 2.2148
-1.44724 -1.31583 3.47445
-0.605195 -0.553845 3.07796
-2.26455 -1.06657 4.26578
-0.51889 -0.683967 1.60346
-0.193438 -0.775262 2.80316
-0.0633028 0.0590219 0.10582
-2.09823 -1.28718 4.11951
-0.309384 -0.566147 1.62391
-1.46289 -1.00369 3.71206
-0.339086 -0.0469925 2.504
-0.5317 -0.601425 2.96139
-1.17051 -1.18095 3.02868
-0.156973 -0.289511 0.648249
-1.65495 -0.0569802 3.83998
-0.40089 -0.661685 2.35317
-0.0773457 -0.656204 1.71758
-0.0819676 0.0309723 0.0495741
-1.81706 -1.15664 3.96526
-1.84323 -1.45758 4.08124
-2.21134 -1.75877 4.28195
-0.479714 -0.159359 2.36229
-0.601817 -0.677613 2.00189
-0.494378 -0.625639 2.84651
-2.11044 -1.33542 4.24777
-0.392614 -0.652836 3.10776
-0.0781283 0.0229435 0.00645531
0.0301226 -0.674389 1.79439
-0.25328 -0.680644 2.39683
-2.31705 -1.73376 4.37674
-0.341267 0.0127201 2.50115
-1.51275 -0.218389 3.78993
-0.936157 -0.890474 2.80731
-1.53906 -1.50148 3.4514
0.14919 -0.703105 3.68202
-0.303427 -0.705476 3.07126
-2.18467 -1.59581 4.4289
-0.0697556 0.0401034 0.0727802
-0.249661 -0.149893 1.50745
-0.0988477 -0.59074 1.41809
-2.60714 -1.87881 4.53272
-2.25089 -1.40816 4.25033
-0.14389 -0.576751 1.25048
-1.91237 -1.72313 3.85938
-0.285689 -0.686416 2.36304
-0.0646221 -0.156196 1.59689
-0.0586838 0.0169487 -0.00623011
-0.355814 -0.595123 1.28875
-1.93386 -1.52522 4.12063
-0.220522 -0.110378 1.60742
-0.111155 -0.607591 1.3443
-0.540216 -0.738783 1.79502
-0.246854 -0.677021 2.66612
-1.5489 -1.4594 3.32147
-0.210006 -0.709134 2.52758
-0.336211 0.0598622 2.50382
0.0465426 -0.737433 2.10469
-1.73715 -1.40643 3.94158
-0.193318 -0.464622 1.00296
-1.62095 -0.381546 3.79801
-3.85842 -1.41739 6.79705
-0.779497 -0.93702 2.32301
-0.0709356 0.0141228 -0.00716104
-1.74661 -1.77148 3.71394
-0.340907 -0.640585 2.11528
-2.50087 -0.860395 4.61806
-0.547264 -0.142347 2.56934
-2.19868 -1.40967 4.23027
-1.64616 -1.38785 3.78629
-0.0512968 -0.100207 2.0421
-0.717326 -0.942005 2.12995
-1.74415 -0.00209576 3.82682
-0.42735 -0.646058 2.69089
-0.0812193 0.0465908 0.0996442
-0.444587 -0.776969 1.58299
-0.129366 -0.585869 1.36114
-0.250663 -0.589258 1.8029
-1.82741 -1.60001 3.85747
-0.811446 -0.320272 3.37419
-0.359364 -0.861028 4.91983
0.0049787 -0.583324 1.90471
-1.99727 -0.801008 3.98947
-0.950489 -1.17378 2.54614
-0.0722915 -0.151663 1.82068
-0.469654 -0.663418 1.49145
-0.0472112 -0.680882 1.59253
-0.153638 -0.684487 2.31781
-0.740874 -0.851314 2.3467
-0.0856205 0.0191612 -0.0172962
-1.79682 -0.0223323 3.89705
-0.235002 -0.389196 1.01295
-0.0533224 -0.586559 1.89853
-0.280795 -0.453801 1.09411
-0.216546 -0.462775 0.923331
-0.469084 -0.602577 2.50775
-0.543752 -0.769113 1.64738
-0.286605 -0.840018 2.45765
-0.134229 -0.53562 1.61588
-2.56254 -0.81581 4.60609
-2.54477 -1.70999 4.4745
-0.0622387 0.0230208 0.00645842
-1.76019 -0.807245 3.85559
-0.623466 -0.688392 3.87827
-1.15863 -1.25049 2.94118
-0.186819 -0.953319 3.47234
-0.204416 -0.455169 0.922265
-1.15129 -1.05146 3.17241
-0.0523111 0.010267 -0.0275828
-1.88753 -0.916568 4.03157
-1.12803 -0.844095 3.18093
-0.57652 -0.738785 1.91711
-1.54246 -0.881329 4.53
-2.22686 -1.39611 4.24832
-2.04771 -0.858823 4.16087
-2.10041 -1.33351 4.19486
-1.33625 -1.36758 3.19544
-0.428337 -0.607977 2.31075
-0.0869516 0.0348026 0.0566098
0.0623317 -0.544824 3.28236
-1.22974 -1.10665 3.27134
-0.3686 -0.0355427 2.50367
0.0380209 -0.69093 1.73194
-1.5107 -1.39254 3.521
-0.219098 -1.00564 4.59981
-1.80298 -1.66146 3.78346
-1.65385 -0.284909 3.84525
-0.232345 -0.699079 2.38376
-0.040939 0.0395886 0.016855
0.0759184 -0.649423 2.03408
-2.09811 -1.57111 4.32948
-2.58344 -0.923188 4.62412
-0.132918 -0.235505 0.560866
-1.06898 -0.295877 3.5936
-0.358853 -0.689094 3.03074
-0.0583229 -0.164155 2.04419
-1.83817 -0.823746 3.90092
-1.69204 -1.63125 3.61629
-0.231905 -0.739758 2.31615
-0.171303 -0.452832 1.11689
-0.661958 -0.815302 2.22619
-0.0512554 0.0480456 0.0632286
-0.73971 -0.689153 4.68568
-1.00261 -0.939466 3.02198
-1.83936 -0.0469464 3.92951
-0.324045 -0.494947 1.1291
0.0704758 -0.741712 2.72195
-0.527657 -0.594155 2.6664
-1.4083 -1.26064 3.49475
-0.0448232 0.0410812 0.0224682
-0.0172188 -0.712083 1.62027
-1.01086 -1.11594 2.72953
-0.259241 -0.142362 1.44369
-0.0328678 -0.731884 1.5406
-3.46187 -0.927634 6.21719
-1.09628 -1.26698 2.80183
-0.285344 -0.704893 2.18236
-0.0697282 -0.605301 1.68587
-0.207749 -0.49084 0.971913
-1.48687 -1.31632 3.55893
-0.0599667 0.0568873 0.0921767
-0.512971 -0.0418066 2.54287
-0.954909 -0.831029 2.89827
-0.7179 -0.90988 2.17518
-0.274501 -0.651948 2.55248
-1.9502 -1.0204 3.97942
-1.6854 -1.30249 4.02324
-0.0753571 0.0465625 0.0950951
-0.074278 0.0365208 0.0484087
0.0636006 -0.709834 1.96385
-1.78607 -1.49366 3.90247
-1.56343 -0.818869 4.58815
-1.49475 -1.40944 3.45434
0.07024 -1.17286 5.38115
-0.0631358 0.0139813 -0.00921247
0.0139279 -0.760008 2.40217
-0.250591 -0.718424 2.27
-0.888864 -0.276839 3.37144
-0.00454731 -0.764446 1.77149
-1.75705 -1.4501 3.91744
0.0281411 0.0497009 -0.120806
-0.0380427 -0.0664395 2.04143
-1.78421 -1.67733 3.73191
-2.11748 -1.29126 4.09444
-0.310662 -0.653477 2.55899
-0.0944396 0.0394833 0.0773717
-0.529149 -0.884674 1.81367
-1.47802 -1.19686 3.74229
-1.19889 -0.92819 3.3006
-2.48943 -1.85797 4.34251
-0.800593 -0.17485 3.37024
-0.58655 -0.60439 3.27792
-1.99784 -1.58658 4.14318
-0.0795116 0.0048644 0.00382315
-1.63659 -0.809458 3.81891
-1.46229 -1.50842 3.15035
-0.57924 -0.632914 2.42496
-1.25305 -0.773472 3.32301
-0.0466954 0.0121984 -0.0204064
-1.14247 -0.881779 3.18163
-1.57162 -1.29046 3.80757
-2.07902 -0.862254 4.17792
-0.87822 -1.05106 2.47182
-0.84613 -0.23842 3.37308
-0.628945 -0.833208 1.99241
-0.610793 -0.624143 2.5336
-0.336619 -0.570441 1.19948
-1.9615 -1.4143 4.37608
-0.0818372 0.049755 0.116681
-0.106984 -0.703105 1.51838
-0.147764 -0.634942 1.65262
-0.074315 0.0295298 0.0297749
-0.0140698 -0.749669 1.58445
-0.481275 -0.617535 3.24507
-1.6623 -1.55417 3.62774
-0.204173 -0.369037 0.96151
-0.240896 -0.680091 2.49568
-0.269781 -0.664874 1.88669
-0.0472398 0.0114419 -0.025241
-1.48508 -0.294057 3.85442
-0.980227 -0.823457 2.96554
-1.07691 -1.13067 2.87207
-1.91476 -0.848738 3.95466
-0.432717 -0.63206 3.03324
-0.884821 -1.07264 2.47284
-0.21482 -0.702878 2.3579
-0.730986 -0.153974 3.0383
0.00262971 -0.714615 1.9553
-0.145859 -0.619561 1.6891
-1.51501 -0.0669189 3.78611
-0.175732 -0.444042 1.0018
-0.794331 -0.253367 3.37168
-0.222712 -0.419309 1.10382
-1.67417 -1.48479 3.70644
-0.470595 -0.641876 3.0146
-1.74982 -0.189427 3.84549
-0.810214 -1.02302 2.33046
-0.200099 -0.72724 2.38442
-0.0656767 0.0253227 0.00900424
-0.427902 -0.693886 1.51354
-1.10148 -1.07607 2.98116
-0.152632 -0.459711 1.00267
-0.823217 -0.284878 3.37657
-0.460708 -0.631114 2.7746
-1.18108 -1.23304 3.00208
-0.121475 -0.544521 1.46303
-1.59171 -1.55697 3.40487
-2.0477 -0.669173 3.98779
-0.356902 -0.70177 2.17406
-0.0342109 -0.657143 1.49623
-0.0534208 0.014974 -0.0156613
-0.81092 -0.689376 4.58308
-2.04607 -1.57969 4.22449
-0.337561 -0.533084 1.26336
0.101552 -0.54317 1.90147
-0.382377 -0.665356 2.61971
-0.771865 -1.11601 2.29407
-0.0629022 0.0176277 -0.0119772
-2.47989 -1.04985 4.5788
-1.17077 -1.04207 3.24349
0.0151477 -0.764389 1.79782
-0.215152 -0.885922 2.79498
-2.06222 -1.69502 4.10556
-0.233004 -0.11472 1.8416
-1.93774 -0.763351 3.95325
-0.686797 -0.727057 4.67868
-0.471481 -0.684506 1.49438
-0.157623 -0.0150192 1.58505
-0.398139 -0.626485 1.40163
-0.215825 -0.748983 2.81895
-1.30346 -1.22057 3.28559
-0.0479836 0.00761928 -0.027155
-0.650081 -0.200261 2.86011
-1.30827 -0.921978 3.4557
-0.433057 -0.594255 1.41247
-1.70918 -0.788942 3.87662
-0.100435 -1.04821 5.39436
-0.310415 -0.69497 2.01927
-0.0609456 0.0194756 -0.00553841
-0.0683827 0.0442803 0.0855613
0.10065 -0.686612 1.87175
-0.859134 -0.957488 2.52494
-1.60747 -0.309933 3.79512
-1.13802 -0.978253 3.22641
-1.87447 -1.66681 3.85374
-3.24222 -1.55152 5.89926
-2.14742 -1.8266 4.01065
-2.05229 -1.51521 4.35142
-2.14299 -1.61775 4.33181
-0.485363 -0.726285 4.64277
-0.0688161 0.0205753 9.56149e-05
-2.17809 -1.29488 4.13619
-1.59904 -1.50907 3.57747
-0.485323 -0.614128 2.43906
-0.0555589 0.0314232 0.0221706
-0.527275 -0.842159 1.8085
-1.58006 -1.25174 3.88056
-1.06301 -0.887158 3.05155
-0.271646 -0.101791 1.68732
-0.577003 -0.61693 3.23328
-1.90622 -1.55032 4.03215
-0.0632846 0.0194583 -0.0104886
-1.88884 -1.01883 3.93647
-0.223415 -0.695768 2.57393
-0.0707275 0.0272472 0.0234676
0.0482382 -0.698833 1.87887
-0.710995 -0.782022 2.30319
-1.98174 -1.47607 4.29579
-0.239656 -0.411963 0.950963
-1.55313 -0.21695 3.85986
-0.509405 -0.636228 3.03797
-0.0713508 0.0180248 -0.00484734
0.109745 -0.408903 3.11869
-0.308148 -0.67604 2.47801
0.0763502 -0.692237 1.73282
-0.262205 -0.410145 1.03391
-0.448764 0.0186545 2.49642
-2.11055 -1.64282 4.26127
-0.0737552 0.0594859 0.135552
-2.03623 -0.719349 3.98869
-0.454189 -0.636357 3.30482
-1.60429 -0.137145 3.78704
-1.26128 -1.3264 3.08624
0.0892501 -0.798578 2.24665
-0.400689 -0.657318 2.43079
-0.286575 -0.579928 1.62313
-0.0639347 0.0117919 -0.0101598
-0.259572 -0.491549 1.02189
-0.475688 -0.655957 1.65881
-0.878689 -0.32841 3.37951
0.0745524 -0.429003 3.15973
-0.355433 -0.716029 3.29354
-2.05384 -1.77007 4.00419
-0.237156 -0.665985 2.26068
-2.36533 -1.40213 4.38848
-1.90208 -1.49677 4.12681
-0.0738156 0.0199762 -0.00584152
-1.76098 -0.473391 3.89458
-0.221172 -0.46283 1.00157
-1.2758 -1.29036 3.14617
-3.80981 -1.45399 6.61831
0.111692 -0.70401 2.43361
-1.26914 -1.38642 3.05621
-1.39826 -1.10539 3.69167
-0.591829 -0.264057 2.57417
-0.0397118 0.0580879 1.7142
-0.0492485 -0.660228 1.49724
-0.0586139 0.00313602 -0.0127408
-0.317336 -0.563507 1.14804
-1.22407 -1.15871 3.17212
-0.444492 -0.261977 2.1514
-2.23203 -0.996937 4.47545
-0.390829 -0.659238 2.74233
-0.202737 -0.343844 0.828501
-0.14447 -0.387669 1.20171
-0.414779 -0.624328 1.35887
-0.000699067 -0.752076 1.61825
-1.86784 -1.34335 4.30746
-0.0608681 0.0393461 0.0501711
-0.549329 -0.877101 1.8132
-0.143029 -0.515262 1.36098
-1.54374 -0.776384 4.76384
-0.197806 -0.34693 0.80303
-0.583916 -0.230013 2.57287
-0.560142 -0.605575 2.39822
-0.0635037 0.021332 -0.00302956
-0.449852 -0.586488 1.65636
-1.67659 -1.32773 3.96184
-1.48251 -1.0049 3.72334
-1.28024 -1.2438 3.22054
-0.0749073 0.0119844 -0.00681027
-0.247732 -0.960611 4.91574
-1.56405 -0.0536314 3.78798
-0.578168 -0.7479 1.73054
-0.342017 -0.630131 2.30797
-1.54102 -0.716862 2.90689
-2.85693 -1.33644 5.50289
-0.360919 -0.582295 1.31072
-0.943895 -1.00007 2.7017
-0.0705447 0.0334565 0.0426865
-1.20004 -0.855134 3.29882
-0.610871 -0.287919 2.57306
-1.05323 -1.17692 2.77032
-2.04572 -0.792443 3.99769
-0.404383 -0.69536 3.4672
-1.3961 -1.19418 3.57015
-0.0744564 0.0280974 0.0185715
0.0698094 -0.699462 1.87842
-0.448717 -0.617256 1.608
-0.0901796 0.0337123 0.0411673
-1.81667 -0.232954 3.9432
-0.127911 -0.593322 1.25056
-0.651689 -0.856206 1.97752
-0.207524 -0.72459 2.54968
-0.156478 -0.555039 1.1424
-1.14848 -1.08507 3.09842
-0.0646933 0.0655177 0.119128
-0.987501 -0.335527 3.42789
-0.0742541 -0.644311 1.4965
-1.22641 -1.24284 3.09456
-1.69847 -0.655301 3.14787
-1.69176 -0.0998418 3.83826
-0.16131 -0.44256 1.00149
-0.592626 -0.784494 1.76605
-0.476288 -0.670962 2.26448
-0.0343086 -0.149375 2.04305
-1.2704 -1.11097 3.37205
-0.558483 -0.707927 1.83086
-0.338152 -0.430466 1.24187
-0.956423 -1.03361 2.69772
-1.47323 -0.862596 4.63879
-0.091118 0.0398187 0.0667326
-2.24955 -1.35289 4.14284
-0.394077 -0.638272 2.37653
-0.0534367 0.0340194 0.0230449
0.0196544 -0.725214 2.0288
-1.54128 -1.30114 3.72838
-0.379411 -0.508477 1.38011
-0.368082 -0.536659 1.24732
-1.67708 -0.209204 3.84367
-1.54309 -0.905434 4.43609
-1.02046 -1.10585 2.77652
-0.0893799 0.0342614 0.0485954
0.0873746 -0.684298 2.41811
-0.276512 -0.680756 2.2888
-0.0540456 -0.652454 1.64215
-0.875419 -0.358822 3.38013
-1.92658 -1.21748 4.05026
-0.117348 -0.666754 1.8331
-1.56051 0.00817542 3.78592
-1.35148 -1.40598 3.19154
-0.187469 -0.506874 1.05658
-1.42694 -0.939583 4.19375
-0.0817386 0.0105932 0.00327745
-0.961266 -0.96211 2.79896
-0.0539364 0.0636133 0.0821063
-0.92396 -0.910335 2.84766
-2.07575 -1.67794 4.15532
-0.556081 -0.19711 2.57315
-1.60405 -1.69856 3.56528
-0.578057 -0.588048 2.79022
-0.416886 -0.604255 1.36387
-1.97369 -0.549824 4.2697
-0.220909 -0.671507 2.21646
-0.889452 -0.943517 2.62164
-0.0779883 0.0208818 2.0146e-05
-1.72424 -0.327997 3.84902
-0.243307 -0.461375 1.00181
-0.144803 -0.252861 0.602986
-0.277453 -0.468129 1.02882
-0.296149 -0.666739 2.76285
-0.768796 -1.01625 2.2223
-1.57868 -1.19566 3.90858
-0.130373 -0.51688 1.31285
-0.525757 -0.210129 2.44808
-0.136459 -0.524379 1.2246
-0.509103 -0.66309 1.80635
-1.76868 -0.91531 3.88183
-0.867756 -0.660024 4.53397
-2.22465 -1.82253 4.2521
-0.451186 -0.668911 2.60756
-0.0507947 0.0101733 -0.0245854
